<svg width="32" height="32" viewBox="0 0 32 32" fill="none" xmlns="http://www.w3.org/2000/svg">
<path d="M16 30C23.732 30 30 23.732 30 16C30 8.26801 23.732 2 16 2C8.26801 2 2 8.26801 2 16C2 23.732 8.26801 30 16 30Z" fill="url(#paint0_radial_20_60)"/>
<path d="M16 30C23.732 30 30 23.732 30 16C30 8.26801 23.732 2 16 2C8.26801 2 2 8.26801 2 16C2 23.732 8.26801 30 16 30Z" fill="url(#paint1_radial_20_60)"/>
<path d="M16 30C23.732 30 30 23.732 30 16C30 8.26801 23.732 2 16 2C8.26801 2 2 8.26801 2 16C2 23.732 8.26801 30 16 30Z" fill="url(#paint2_radial_20_60)"/>
<path d="M16 30C23.732 30 30 23.732 30 16C30 8.26801 23.732 2 16 2C8.26801 2 2 8.26801 2 16C2 23.732 8.26801 30 16 30Z" fill="url(#paint3_radial_20_60)"/>
<path d="M16 30C23.732 30 30 23.732 30 16C30 8.26801 23.732 2 16 2C8.26801 2 2 8.26801 2 16C2 23.732 8.26801 30 16 30Z" fill="url(#paint4_radial_20_60)"/>
<path d="M9.5 16C11.433 16 13 14.433 13 12.5C13 10.567 11.433 9 9.5 9C7.567 9 6 10.567 6 12.5C6 14.433 7.567 16 9.5 16Z" fill="url(#paint5_radial_20_60)"/>
<path d="M9.5 16C11.433 16 13 14.433 13 12.5C13 10.567 11.433 9 9.5 9C7.567 9 6 10.567 6 12.5C6 14.433 7.567 16 9.5 16Z" fill="url(#paint6_radial_20_60)"/>
<path d="M9.5 16C11.433 16 13 14.433 13 12.5C13 10.567 11.433 9 9.5 9C7.567 9 6 10.567 6 12.5C6 14.433 7.567 16 9.5 16Z" fill="url(#paint7_radial_20_60)"/>
<g filter="url(#filter0_f_20_60)">
<path d="M22.5 14C23.8807 14 25 12.8807 25 11.5C25 10.1193 23.8807 9 22.5 9C21.1193 9 20 10.1193 20 11.5C20 12.8807 21.1193 14 22.5 14Z" fill="url(#paint8_radial_20_60)"/>
<path d="M22.5 14.1C23.9359 14.1 25.1 12.9359 25.1 11.5C25.1 10.0641 23.9359 8.9 22.5 8.9C21.0641 8.9 19.9 10.0641 19.9 11.5C19.9 12.9359 21.0641 14.1 22.5 14.1Z" stroke="url(#paint9_linear_20_60)" stroke-width="0.2"/>
</g>
<g filter="url(#filter1_f_20_60)">
<path d="M28.764 21.234C27.877 23.394 26.509 25.197 24.732 26.656C24.184 26.038 24 25.391 24 24.5C24 23.5717 24.3687 22.6815 25.0251 22.0251C25.6815 21.3687 26.5717 21 27.5 21C28.02 21 28.32 21.032 28.764 21.234Z" stroke="url(#paint10_linear_20_60)" stroke-width="0.3"/>
</g>
<g filter="url(#filter2_f_20_60)">
<path d="M9.5 16C11.433 16 13 14.433 13 12.5C13 10.567 11.433 9 9.5 9C7.567 9 6 10.567 6 12.5C6 14.433 7.567 16 9.5 16Z" stroke="url(#paint11_linear_20_60)" stroke-width="0.2"/>
</g>
<g filter="url(#filter3_f_20_60)">
<path d="M16 23.906C17.3288 23.906 18.406 22.8288 18.406 21.5C18.406 20.1712 17.3288 19.094 16 19.094C14.6712 19.094 13.594 20.1712 13.594 21.5C13.594 22.8288 14.6712 23.906 16 23.906Z" fill="url(#paint12_radial_20_60)"/>
<path d="M16 23.906C17.3288 23.906 18.406 22.8288 18.406 21.5C18.406 20.1712 17.3288 19.094 16 19.094C14.6712 19.094 13.594 20.1712 13.594 21.5C13.594 22.8288 14.6712 23.906 16 23.906Z" fill="url(#paint13_radial_20_60)"/>
<path d="M16 23.981C17.3702 23.981 18.481 22.8702 18.481 21.5C18.481 20.1298 17.3702 19.019 16 19.019C14.6298 19.019 13.519 20.1298 13.519 21.5C13.519 22.8702 14.6298 23.981 16 23.981Z" stroke="url(#paint14_linear_20_60)" stroke-width="0.15"/>
</g>
<g filter="url(#filter4_f_20_60)">
<path d="M10.373 28.636C8.21741 27.6495 6.34638 26.1339 4.93399 24.23C5.57399 23.417 6.49399 22.974 7.60999 22.974C9.54299 22.974 10.937 24.698 11.025 26.398C11.025 27.25 10.879 28.028 10.373 28.636Z" stroke="url(#paint15_linear_20_60)" stroke-width="0.2"/>
</g>
<path d="M10.189 28.74C8.03354 27.7538 6.16252 26.2385 4.75 24.335C5.03765 23.9729 5.39419 23.6714 5.79904 23.4479C6.20388 23.2245 6.649 23.0834 7.10867 23.033C7.56834 22.9825 8.03345 23.0237 8.47713 23.154C8.92081 23.2844 9.33425 23.5014 9.69358 23.7925C10.0529 24.0836 10.351 24.443 10.5706 24.8499C10.7902 25.2569 10.927 25.7033 10.9731 26.1634C11.0191 26.6236 10.9736 27.0883 10.839 27.5307C10.7044 27.9731 10.4835 28.3835 10.189 28.74Z" fill="url(#paint16_linear_20_60)"/>
<path d="M10.189 28.74C8.03354 27.7538 6.16252 26.2385 4.75 24.335C5.03765 23.9729 5.39419 23.6714 5.79904 23.4479C6.20388 23.2245 6.649 23.0834 7.10867 23.033C7.56834 22.9825 8.03345 23.0237 8.47713 23.154C8.92081 23.2844 9.33425 23.5014 9.69358 23.7925C10.0529 24.0836 10.351 24.443 10.5706 24.8499C10.7902 25.2569 10.927 25.7033 10.9731 26.1634C11.0191 26.6236 10.9736 27.0883 10.839 27.5307C10.7044 27.9731 10.4835 28.3835 10.189 28.74Z" fill="url(#paint17_radial_20_60)"/>
<path d="M28.955 21.316C28.0728 23.4598 26.6735 25.3517 24.882 26.823C24.3484 26.2227 24.0376 25.4571 24.0016 24.6547C23.9656 23.8524 24.2067 23.062 24.6843 22.4163C25.162 21.7706 25.8472 21.3089 26.625 21.1085C27.4028 20.9082 28.2248 20.9814 28.955 21.316Z" fill="url(#paint18_linear_20_60)"/>
<path d="M28.955 21.316C28.0728 23.4598 26.6735 25.3517 24.882 26.823C24.3484 26.2227 24.0376 25.4571 24.0016 24.6547C23.9656 23.8524 24.2067 23.062 24.6843 22.4163C25.162 21.7706 25.8472 21.3089 26.625 21.1085C27.4028 20.9082 28.2248 20.9814 28.955 21.316Z" fill="url(#paint19_radial_20_60)"/>
<path d="M28.955 21.316C28.0728 23.4598 26.6735 25.3517 24.882 26.823C24.3484 26.2227 24.0376 25.4571 24.0016 24.6547C23.9656 23.8524 24.2067 23.062 24.6843 22.4163C25.162 21.7706 25.8472 21.3089 26.625 21.1085C27.4028 20.9082 28.2248 20.9814 28.955 21.316Z" fill="url(#paint20_radial_20_60)"/>
<g filter="url(#filter5_f_20_60)">
<path d="M15.099 7C16.0511 7 16.823 6.32843 16.823 5.5C16.823 4.67157 16.0511 4 15.099 4C14.1469 4 13.375 4.67157 13.375 5.5C13.375 6.32843 14.1469 7 15.099 7Z" fill="url(#paint21_radial_20_60)"/>
<path d="M15.099 7C16.0511 7 16.823 6.32843 16.823 5.5C16.823 4.67157 16.0511 4 15.099 4C14.1469 4 13.375 4.67157 13.375 5.5C13.375 6.32843 14.1469 7 15.099 7Z" fill="url(#paint22_radial_20_60)"/>
<path d="M15.1 7.075C16.083 7.075 16.898 6.379 16.898 5.5C16.898 4.62 16.083 3.925 15.099 3.925C14.116 3.925 13.3 4.621 13.3 5.5C13.3 6.38 14.116 7.075 15.1 7.075Z" stroke="url(#paint23_linear_20_60)" stroke-width="0.15"/>
</g>
<defs>
<filter id="filter0_f_20_60" x="19.5" y="8.5" width="5.99999" height="6" filterUnits="userSpaceOnUse" color-interpolation-filters="sRGB">
<feFlood flood-opacity="0" result="BackgroundImageFix"/>
<feBlend mode="normal" in="SourceGraphic" in2="BackgroundImageFix" result="shape"/>
<feGaussianBlur stdDeviation="0.15" result="effect1_foregroundBlur_20_60"/>
</filter>
<filter id="filter1_f_20_60" x="23.55" y="20.55" width="5.70764" height="6.61357" filterUnits="userSpaceOnUse" color-interpolation-filters="sRGB">
<feFlood flood-opacity="0" result="BackgroundImageFix"/>
<feBlend mode="normal" in="SourceGraphic" in2="BackgroundImageFix" result="shape"/>
<feGaussianBlur stdDeviation="0.15" result="effect1_foregroundBlur_20_60"/>
</filter>
<filter id="filter2_f_20_60" x="5.59999" y="8.6" width="7.80001" height="7.8" filterUnits="userSpaceOnUse" color-interpolation-filters="sRGB">
<feFlood flood-opacity="0" result="BackgroundImageFix"/>
<feBlend mode="normal" in="SourceGraphic" in2="BackgroundImageFix" result="shape"/>
<feGaussianBlur stdDeviation="0.15" result="effect1_foregroundBlur_20_60"/>
</filter>
<filter id="filter3_f_20_60" x="13.244" y="18.744" width="5.512" height="5.512" filterUnits="userSpaceOnUse" color-interpolation-filters="sRGB">
<feFlood flood-opacity="0" result="BackgroundImageFix"/>
<feBlend mode="normal" in="SourceGraphic" in2="BackgroundImageFix" result="shape"/>
<feGaussianBlur stdDeviation="0.1" result="effect1_foregroundBlur_20_60"/>
</filter>
<filter id="filter4_f_20_60" x="4.60814" y="22.674" width="6.71699" height="6.28476" filterUnits="userSpaceOnUse" color-interpolation-filters="sRGB">
<feFlood flood-opacity="0" result="BackgroundImageFix"/>
<feBlend mode="normal" in="SourceGraphic" in2="BackgroundImageFix" result="shape"/>
<feGaussianBlur stdDeviation="0.1" result="effect1_foregroundBlur_20_60"/>
</filter>
<filter id="filter5_f_20_60" x="13.025" y="3.65001" width="4.14802" height="3.7" filterUnits="userSpaceOnUse" color-interpolation-filters="sRGB">
<feFlood flood-opacity="0" result="BackgroundImageFix"/>
<feBlend mode="normal" in="SourceGraphic" in2="BackgroundImageFix" result="shape"/>
<feGaussianBlur stdDeviation="0.1" result="effect1_foregroundBlur_20_60"/>
</filter>
<radialGradient id="paint0_radial_20_60" cx="0" cy="0" r="1" gradientUnits="userSpaceOnUse" gradientTransform="translate(23.8745 10.699) rotate(129.653) scale(18.0213 18.5548)">
<stop stop-color="#FFFAAC"/>
<stop offset="1" stop-color="#FFBD4D"/>
</radialGradient>
<radialGradient id="paint1_radial_20_60" cx="0" cy="0" r="1" gradientUnits="userSpaceOnUse" gradientTransform="translate(22.0003 11.6987) rotate(126.159) scale(22.6683 31.6261)">
<stop offset="0.46" stop-color="#D97850" stop-opacity="0"/>
<stop offset="0.802" stop-color="#D97850"/>
</radialGradient>
<radialGradient id="paint2_radial_20_60" cx="0" cy="0" r="1" gradientUnits="userSpaceOnUse" gradientTransform="translate(30.8755 19.8221) rotate(-158.449) scale(29.4954 25.5742)">
<stop offset="0.679" stop-color="#B69262" stop-opacity="0"/>
<stop offset="1" stop-color="#B69262"/>
</radialGradient>
<radialGradient id="paint3_radial_20_60" cx="0" cy="0" r="1" gradientUnits="userSpaceOnUse" gradientTransform="translate(16 5.198) rotate(90) scale(27.25 20.9516)">
<stop offset="0.821" stop-color="#C3747F" stop-opacity="0"/>
<stop offset="1" stop-color="#C3747F"/>
</radialGradient>
<radialGradient id="paint4_radial_20_60" cx="0" cy="0" r="1" gradientUnits="userSpaceOnUse" gradientTransform="translate(3.161 9.97) rotate(19.9832) scale(4.91991 16.9803)">
<stop stop-color="#B48C4F"/>
<stop offset="1" stop-color="#B48C4F" stop-opacity="0"/>
</radialGradient>
<radialGradient id="paint5_radial_20_60" cx="0" cy="0" r="1" gradientUnits="userSpaceOnUse" gradientTransform="translate(7.06284 15.1358) rotate(-47.175) scale(6.98771)">
<stop stop-color="#F6B953"/>
<stop offset="1" stop-color="#D5A04B"/>
</radialGradient>
<radialGradient id="paint6_radial_20_60" cx="0" cy="0" r="1" gradientUnits="userSpaceOnUse" gradientTransform="translate(10.08 12.5) rotate(180) scale(4.07919 3.91074)">
<stop offset="0.894" stop-color="#FFC553" stop-opacity="0"/>
<stop offset="1" stop-color="#FFC553"/>
</radialGradient>
<radialGradient id="paint7_radial_20_60" cx="0" cy="0" r="1" gradientUnits="userSpaceOnUse" gradientTransform="translate(6.813 15.136) rotate(-45.3312) scale(7.64572 5.69865)">
<stop offset="0.636" stop-color="#BD8D44" stop-opacity="0"/>
<stop offset="1" stop-color="#BD8D44"/>
</radialGradient>
<radialGradient id="paint8_radial_20_60" cx="0" cy="0" r="1" gradientUnits="userSpaceOnUse" gradientTransform="translate(20 13.396) rotate(-38.0046) scale(7.13868 2.34917)">
<stop offset="0.2" stop-color="#FFF8B1"/>
<stop offset="1" stop-color="#FFD975"/>
</radialGradient>
<linearGradient id="paint9_linear_20_60" x1="20.577" y1="9" x2="23.646" y2="14" gradientUnits="userSpaceOnUse">
<stop stop-color="#FFF9AC"/>
<stop offset="0.492" stop-color="#FFF9AC" stop-opacity="0"/>
<stop offset="1" stop-color="#FFF9AC"/>
</linearGradient>
<linearGradient id="paint10_linear_20_60" x1="27.982" y1="20.656" x2="24.639" y2="26.313" gradientUnits="userSpaceOnUse">
<stop stop-color="#F5BD64"/>
<stop offset="1" stop-color="#FFDC75"/>
</linearGradient>
<linearGradient id="paint11_linear_20_60" x1="11.325" y1="9.361" x2="6.934" y2="15.057" gradientUnits="userSpaceOnUse">
<stop stop-color="#E4AC50"/>
<stop offset="1" stop-color="#D79C38"/>
</linearGradient>
<radialGradient id="paint12_radial_20_60" cx="0" cy="0" r="1" gradientUnits="userSpaceOnUse" gradientTransform="translate(16.7935 20.7079) rotate(135) scale(3.78776 4.52374)">
<stop offset="0.252" stop-color="#F29E64"/>
<stop offset="1" stop-color="#FFD87E"/>
</radialGradient>
<radialGradient id="paint13_radial_20_60" cx="0" cy="0" r="1" gradientUnits="userSpaceOnUse" gradientTransform="translate(14.646 22.954) rotate(-43.6028) scale(4.36132 3.55389)">
<stop offset="0.837" stop-color="#E3915B" stop-opacity="0"/>
<stop offset="1" stop-color="#E3915B"/>
</radialGradient>
<linearGradient id="paint14_linear_20_60" x1="17.684" y1="19.401" x2="13.949" y2="23.191" gradientUnits="userSpaceOnUse">
<stop stop-color="#FBAC52"/>
<stop offset="1" stop-color="#FFB053"/>
</linearGradient>
<linearGradient id="paint15_linear_20_60" x1="10.375" y1="27.948" x2="5.31299" y2="23.479" gradientUnits="userSpaceOnUse">
<stop stop-color="#B36558"/>
<stop offset="1" stop-color="#B96779"/>
</linearGradient>
<linearGradient id="paint16_linear_20_60" x1="10.307" y1="24.331" x2="5.964" y2="26.993" gradientUnits="userSpaceOnUse">
<stop stop-color="#BD6152"/>
<stop offset="1" stop-color="#AE6B71"/>
</linearGradient>
<radialGradient id="paint17_radial_20_60" cx="0" cy="0" r="1" gradientUnits="userSpaceOnUse" gradientTransform="translate(9.584 27.05) rotate(-142.952) scale(5.57177 3.36972)">
<stop offset="0.888" stop-color="#AF4C46" stop-opacity="0"/>
<stop offset="1" stop-color="#AF4C46"/>
</radialGradient>
<linearGradient id="paint18_linear_20_60" x1="26.059" y1="21.826" x2="25.915" y2="25.986" gradientUnits="userSpaceOnUse">
<stop stop-color="#FFD36A"/>
<stop offset="1" stop-color="#EFB872"/>
</linearGradient>
<radialGradient id="paint19_radial_20_60" cx="0" cy="0" r="1" gradientUnits="userSpaceOnUse" gradientTransform="translate(27.35 26.823) rotate(-98.7873) scale(5.70898 4.73474)">
<stop offset="0.85" stop-color="#DFA14C" stop-opacity="0"/>
<stop offset="1" stop-color="#C28255"/>
</radialGradient>
<radialGradient id="paint20_radial_20_60" cx="0" cy="0" r="1" gradientUnits="userSpaceOnUse" gradientTransform="translate(27.139 23.1244) rotate(122.849) scale(4.72413 4.02056)">
<stop offset="0.718" stop-color="#FFE38A" stop-opacity="0"/>
<stop offset="0.952" stop-color="#FFE38A"/>
</radialGradient>
<radialGradient id="paint21_radial_20_60" cx="0" cy="0" r="1" gradientUnits="userSpaceOnUse" gradientTransform="translate(16.38 5.5) rotate(180) scale(3.00536 3.27072)">
<stop offset="0.437" stop-color="#F3BB63"/>
<stop offset="1" stop-color="#FFF3A5"/>
</radialGradient>
<radialGradient id="paint22_radial_20_60" cx="0" cy="0" r="1" gradientUnits="userSpaceOnUse" gradientTransform="translate(14.068 5.5) scale(2.75536 2.97042)">
<stop offset="0.639" stop-color="#CD9E56" stop-opacity="0"/>
<stop offset="1" stop-color="#CD9E56"/>
</radialGradient>
<linearGradient id="paint23_linear_20_60" x1="16.823" y1="5.17" x2="15.643" y2="5.17" gradientUnits="userSpaceOnUse">
<stop stop-color="#FDC36B"/>
<stop offset="1" stop-color="#FFDD7B"/>
</linearGradient>
</defs>
</svg>
