<svg width="32" height="32" viewBox="0 0 32 32" fill="none" xmlns="http://www.w3.org/2000/svg">
<g filter="url(#filter0_i_18_2)">
<path d="M13.05 3.33C14.582 1.607 16.664 1.882 17.996 3.33L18.808 4.271C19.09 4.578 19.497 4.736 19.911 4.701L21.355 4.271C23.324 3.849 25.113 5.318 25.113 7.599V8.459C25.155 8.928 25.565 9.246 25.988 9.453L27.293 9.998C29.18 10.92 29.653 13.108 28.277 14.943L27.887 15.459C27.537 15.932 27.608 16.554 27.957 17.029L28.347 17.576C29.769 19.326 28.967 21.726 26.959 22.566L25.836 23.035C25.413 23.212 25.246 23.515 25.168 23.967L25.09 25.435C24.816 27.451 23.026 28.361 21.59 28.158L19.879 27.701C19.468 27.643 18.957 27.779 18.683 28.209L18.066 29.053C16.535 30.779 14.468 30.492 13.426 29.483L12.287 28.103C11.989 27.815 11.613 27.568 11.163 27.738L9.441 28.208C8.02 28.41 6.345 27.318 6.078 25.907L5.878 23.865C5.83839 23.6556 5.74954 23.4586 5.61878 23.2903C5.48803 23.122 5.31912 22.9872 5.126 22.897L3.918 22.482C2.101 21.636 1.493 19.586 2.536 17.875L3.216 16.933C3.34975 16.7135 3.41773 16.4602 3.41188 16.2032C3.40603 15.9462 3.3266 15.6962 3.183 15.483L2.676 14.763C1.238 12.717 2.232 10.429 4.362 9.743L4.832 9.592C5.35 9.425 5.852 8.994 5.894 8.451L6 7.133C6.17 4.993 8.122 3.765 10.176 4.39L10.841 4.592C11.481 4.842 11.983 4.629 12.333 4.248L13.052 3.331L13.05 3.33Z" fill="url(#paint0_linear_18_2)"/>
<path d="M13.05 3.33C14.582 1.607 16.664 1.882 17.996 3.33L18.808 4.271C19.09 4.578 19.497 4.736 19.911 4.701L21.355 4.271C23.324 3.849 25.113 5.318 25.113 7.599V8.459C25.155 8.928 25.565 9.246 25.988 9.453L27.293 9.998C29.18 10.92 29.653 13.108 28.277 14.943L27.887 15.459C27.537 15.932 27.608 16.554 27.957 17.029L28.347 17.576C29.769 19.326 28.967 21.726 26.959 22.566L25.836 23.035C25.413 23.212 25.246 23.515 25.168 23.967L25.09 25.435C24.816 27.451 23.026 28.361 21.59 28.158L19.879 27.701C19.468 27.643 18.957 27.779 18.683 28.209L18.066 29.053C16.535 30.779 14.468 30.492 13.426 29.483L12.287 28.103C11.989 27.815 11.613 27.568 11.163 27.738L9.441 28.208C8.02 28.41 6.345 27.318 6.078 25.907L5.878 23.865C5.83839 23.6556 5.74954 23.4586 5.61878 23.2903C5.48803 23.122 5.31912 22.9872 5.126 22.897L3.918 22.482C2.101 21.636 1.493 19.586 2.536 17.875L3.216 16.933C3.34975 16.7135 3.41773 16.4602 3.41188 16.2032C3.40603 15.9462 3.3266 15.6962 3.183 15.483L2.676 14.763C1.238 12.717 2.232 10.429 4.362 9.743L4.832 9.592C5.35 9.425 5.852 8.994 5.894 8.451L6 7.133C6.17 4.993 8.122 3.765 10.176 4.39L10.841 4.592C11.481 4.842 11.983 4.629 12.333 4.248L13.052 3.331L13.05 3.33Z" fill="url(#paint1_radial_18_2)"/>
<path d="M13.05 3.33C14.582 1.607 16.664 1.882 17.996 3.33L18.808 4.271C19.09 4.578 19.497 4.736 19.911 4.701L21.355 4.271C23.324 3.849 25.113 5.318 25.113 7.599V8.459C25.155 8.928 25.565 9.246 25.988 9.453L27.293 9.998C29.18 10.92 29.653 13.108 28.277 14.943L27.887 15.459C27.537 15.932 27.608 16.554 27.957 17.029L28.347 17.576C29.769 19.326 28.967 21.726 26.959 22.566L25.836 23.035C25.413 23.212 25.246 23.515 25.168 23.967L25.09 25.435C24.816 27.451 23.026 28.361 21.59 28.158L19.879 27.701C19.468 27.643 18.957 27.779 18.683 28.209L18.066 29.053C16.535 30.779 14.468 30.492 13.426 29.483L12.287 28.103C11.989 27.815 11.613 27.568 11.163 27.738L9.441 28.208C8.02 28.41 6.345 27.318 6.078 25.907L5.878 23.865C5.83839 23.6556 5.74954 23.4586 5.61878 23.2903C5.48803 23.122 5.31912 22.9872 5.126 22.897L3.918 22.482C2.101 21.636 1.493 19.586 2.536 17.875L3.216 16.933C3.34975 16.7135 3.41773 16.4602 3.41188 16.2032C3.40603 15.9462 3.3266 15.6962 3.183 15.483L2.676 14.763C1.238 12.717 2.232 10.429 4.362 9.743L4.832 9.592C5.35 9.425 5.852 8.994 5.894 8.451L6 7.133C6.17 4.993 8.122 3.765 10.176 4.39L10.841 4.592C11.481 4.842 11.983 4.629 12.333 4.248L13.052 3.331L13.05 3.33Z" fill="url(#paint2_radial_18_2)"/>
<path d="M13.05 3.33C14.582 1.607 16.664 1.882 17.996 3.33L18.808 4.271C19.09 4.578 19.497 4.736 19.911 4.701L21.355 4.271C23.324 3.849 25.113 5.318 25.113 7.599V8.459C25.155 8.928 25.565 9.246 25.988 9.453L27.293 9.998C29.18 10.92 29.653 13.108 28.277 14.943L27.887 15.459C27.537 15.932 27.608 16.554 27.957 17.029L28.347 17.576C29.769 19.326 28.967 21.726 26.959 22.566L25.836 23.035C25.413 23.212 25.246 23.515 25.168 23.967L25.09 25.435C24.816 27.451 23.026 28.361 21.59 28.158L19.879 27.701C19.468 27.643 18.957 27.779 18.683 28.209L18.066 29.053C16.535 30.779 14.468 30.492 13.426 29.483L12.287 28.103C11.989 27.815 11.613 27.568 11.163 27.738L9.441 28.208C8.02 28.41 6.345 27.318 6.078 25.907L5.878 23.865C5.83839 23.6556 5.74954 23.4586 5.61878 23.2903C5.48803 23.122 5.31912 22.9872 5.126 22.897L3.918 22.482C2.101 21.636 1.493 19.586 2.536 17.875L3.216 16.933C3.34975 16.7135 3.41773 16.4602 3.41188 16.2032C3.40603 15.9462 3.3266 15.6962 3.183 15.483L2.676 14.763C1.238 12.717 2.232 10.429 4.362 9.743L4.832 9.592C5.35 9.425 5.852 8.994 5.894 8.451L6 7.133C6.17 4.993 8.122 3.765 10.176 4.39L10.841 4.592C11.481 4.842 11.983 4.629 12.333 4.248L13.052 3.331L13.05 3.33Z" fill="url(#paint3_radial_18_2)"/>
<path d="M13.05 3.33C14.582 1.607 16.664 1.882 17.996 3.33L18.808 4.271C19.09 4.578 19.497 4.736 19.911 4.701L21.355 4.271C23.324 3.849 25.113 5.318 25.113 7.599V8.459C25.155 8.928 25.565 9.246 25.988 9.453L27.293 9.998C29.18 10.92 29.653 13.108 28.277 14.943L27.887 15.459C27.537 15.932 27.608 16.554 27.957 17.029L28.347 17.576C29.769 19.326 28.967 21.726 26.959 22.566L25.836 23.035C25.413 23.212 25.246 23.515 25.168 23.967L25.09 25.435C24.816 27.451 23.026 28.361 21.59 28.158L19.879 27.701C19.468 27.643 18.957 27.779 18.683 28.209L18.066 29.053C16.535 30.779 14.468 30.492 13.426 29.483L12.287 28.103C11.989 27.815 11.613 27.568 11.163 27.738L9.441 28.208C8.02 28.41 6.345 27.318 6.078 25.907L5.878 23.865C5.83839 23.6556 5.74954 23.4586 5.61878 23.2903C5.48803 23.122 5.31912 22.9872 5.126 22.897L3.918 22.482C2.101 21.636 1.493 19.586 2.536 17.875L3.216 16.933C3.34975 16.7135 3.41773 16.4602 3.41188 16.2032C3.40603 15.9462 3.3266 15.6962 3.183 15.483L2.676 14.763C1.238 12.717 2.232 10.429 4.362 9.743L4.832 9.592C5.35 9.425 5.852 8.994 5.894 8.451L6 7.133C6.17 4.993 8.122 3.765 10.176 4.39L10.841 4.592C11.481 4.842 11.983 4.629 12.333 4.248L13.052 3.331L13.05 3.33Z" fill="url(#paint4_radial_18_2)"/>
<path d="M13.05 3.33C14.582 1.607 16.664 1.882 17.996 3.33L18.808 4.271C19.09 4.578 19.497 4.736 19.911 4.701L21.355 4.271C23.324 3.849 25.113 5.318 25.113 7.599V8.459C25.155 8.928 25.565 9.246 25.988 9.453L27.293 9.998C29.18 10.92 29.653 13.108 28.277 14.943L27.887 15.459C27.537 15.932 27.608 16.554 27.957 17.029L28.347 17.576C29.769 19.326 28.967 21.726 26.959 22.566L25.836 23.035C25.413 23.212 25.246 23.515 25.168 23.967L25.09 25.435C24.816 27.451 23.026 28.361 21.59 28.158L19.879 27.701C19.468 27.643 18.957 27.779 18.683 28.209L18.066 29.053C16.535 30.779 14.468 30.492 13.426 29.483L12.287 28.103C11.989 27.815 11.613 27.568 11.163 27.738L9.441 28.208C8.02 28.41 6.345 27.318 6.078 25.907L5.878 23.865C5.83839 23.6556 5.74954 23.4586 5.61878 23.2903C5.48803 23.122 5.31912 22.9872 5.126 22.897L3.918 22.482C2.101 21.636 1.493 19.586 2.536 17.875L3.216 16.933C3.34975 16.7135 3.41773 16.4602 3.41188 16.2032C3.40603 15.9462 3.3266 15.6962 3.183 15.483L2.676 14.763C1.238 12.717 2.232 10.429 4.362 9.743L4.832 9.592C5.35 9.425 5.852 8.994 5.894 8.451L6 7.133C6.17 4.993 8.122 3.765 10.176 4.39L10.841 4.592C11.481 4.842 11.983 4.629 12.333 4.248L13.052 3.331L13.05 3.33Z" fill="url(#paint5_radial_18_2)"/>
<path d="M13.05 3.33C14.582 1.607 16.664 1.882 17.996 3.33L18.808 4.271C19.09 4.578 19.497 4.736 19.911 4.701L21.355 4.271C23.324 3.849 25.113 5.318 25.113 7.599V8.459C25.155 8.928 25.565 9.246 25.988 9.453L27.293 9.998C29.18 10.92 29.653 13.108 28.277 14.943L27.887 15.459C27.537 15.932 27.608 16.554 27.957 17.029L28.347 17.576C29.769 19.326 28.967 21.726 26.959 22.566L25.836 23.035C25.413 23.212 25.246 23.515 25.168 23.967L25.09 25.435C24.816 27.451 23.026 28.361 21.59 28.158L19.879 27.701C19.468 27.643 18.957 27.779 18.683 28.209L18.066 29.053C16.535 30.779 14.468 30.492 13.426 29.483L12.287 28.103C11.989 27.815 11.613 27.568 11.163 27.738L9.441 28.208C8.02 28.41 6.345 27.318 6.078 25.907L5.878 23.865C5.83839 23.6556 5.74954 23.4586 5.61878 23.2903C5.48803 23.122 5.31912 22.9872 5.126 22.897L3.918 22.482C2.101 21.636 1.493 19.586 2.536 17.875L3.216 16.933C3.34975 16.7135 3.41773 16.4602 3.41188 16.2032C3.40603 15.9462 3.3266 15.6962 3.183 15.483L2.676 14.763C1.238 12.717 2.232 10.429 4.362 9.743L4.832 9.592C5.35 9.425 5.852 8.994 5.894 8.451L6 7.133C6.17 4.993 8.122 3.765 10.176 4.39L10.841 4.592C11.481 4.842 11.983 4.629 12.333 4.248L13.052 3.331L13.05 3.33Z" fill="url(#paint6_radial_18_2)"/>
<path d="M13.05 3.33C14.582 1.607 16.664 1.882 17.996 3.33L18.808 4.271C19.09 4.578 19.497 4.736 19.911 4.701L21.355 4.271C23.324 3.849 25.113 5.318 25.113 7.599V8.459C25.155 8.928 25.565 9.246 25.988 9.453L27.293 9.998C29.18 10.92 29.653 13.108 28.277 14.943L27.887 15.459C27.537 15.932 27.608 16.554 27.957 17.029L28.347 17.576C29.769 19.326 28.967 21.726 26.959 22.566L25.836 23.035C25.413 23.212 25.246 23.515 25.168 23.967L25.09 25.435C24.816 27.451 23.026 28.361 21.59 28.158L19.879 27.701C19.468 27.643 18.957 27.779 18.683 28.209L18.066 29.053C16.535 30.779 14.468 30.492 13.426 29.483L12.287 28.103C11.989 27.815 11.613 27.568 11.163 27.738L9.441 28.208C8.02 28.41 6.345 27.318 6.078 25.907L5.878 23.865C5.83839 23.6556 5.74954 23.4586 5.61878 23.2903C5.48803 23.122 5.31912 22.9872 5.126 22.897L3.918 22.482C2.101 21.636 1.493 19.586 2.536 17.875L3.216 16.933C3.34975 16.7135 3.41773 16.4602 3.41188 16.2032C3.40603 15.9462 3.3266 15.6962 3.183 15.483L2.676 14.763C1.238 12.717 2.232 10.429 4.362 9.743L4.832 9.592C5.35 9.425 5.852 8.994 5.894 8.451L6 7.133C6.17 4.993 8.122 3.765 10.176 4.39L10.841 4.592C11.481 4.842 11.983 4.629 12.333 4.248L13.052 3.331L13.05 3.33Z" fill="url(#paint7_radial_18_2)"/>
<path d="M13.05 3.33C14.582 1.607 16.664 1.882 17.996 3.33L18.808 4.271C19.09 4.578 19.497 4.736 19.911 4.701L21.355 4.271C23.324 3.849 25.113 5.318 25.113 7.599V8.459C25.155 8.928 25.565 9.246 25.988 9.453L27.293 9.998C29.18 10.92 29.653 13.108 28.277 14.943L27.887 15.459C27.537 15.932 27.608 16.554 27.957 17.029L28.347 17.576C29.769 19.326 28.967 21.726 26.959 22.566L25.836 23.035C25.413 23.212 25.246 23.515 25.168 23.967L25.09 25.435C24.816 27.451 23.026 28.361 21.59 28.158L19.879 27.701C19.468 27.643 18.957 27.779 18.683 28.209L18.066 29.053C16.535 30.779 14.468 30.492 13.426 29.483L12.287 28.103C11.989 27.815 11.613 27.568 11.163 27.738L9.441 28.208C8.02 28.41 6.345 27.318 6.078 25.907L5.878 23.865C5.83839 23.6556 5.74954 23.4586 5.61878 23.2903C5.48803 23.122 5.31912 22.9872 5.126 22.897L3.918 22.482C2.101 21.636 1.493 19.586 2.536 17.875L3.216 16.933C3.34975 16.7135 3.41773 16.4602 3.41188 16.2032C3.40603 15.9462 3.3266 15.6962 3.183 15.483L2.676 14.763C1.238 12.717 2.232 10.429 4.362 9.743L4.832 9.592C5.35 9.425 5.852 8.994 5.894 8.451L6 7.133C6.17 4.993 8.122 3.765 10.176 4.39L10.841 4.592C11.481 4.842 11.983 4.629 12.333 4.248L13.052 3.331L13.05 3.33Z" fill="url(#paint8_radial_18_2)"/>
<path d="M13.05 3.33C14.582 1.607 16.664 1.882 17.996 3.33L18.808 4.271C19.09 4.578 19.497 4.736 19.911 4.701L21.355 4.271C23.324 3.849 25.113 5.318 25.113 7.599V8.459C25.155 8.928 25.565 9.246 25.988 9.453L27.293 9.998C29.18 10.92 29.653 13.108 28.277 14.943L27.887 15.459C27.537 15.932 27.608 16.554 27.957 17.029L28.347 17.576C29.769 19.326 28.967 21.726 26.959 22.566L25.836 23.035C25.413 23.212 25.246 23.515 25.168 23.967L25.09 25.435C24.816 27.451 23.026 28.361 21.59 28.158L19.879 27.701C19.468 27.643 18.957 27.779 18.683 28.209L18.066 29.053C16.535 30.779 14.468 30.492 13.426 29.483L12.287 28.103C11.989 27.815 11.613 27.568 11.163 27.738L9.441 28.208C8.02 28.41 6.345 27.318 6.078 25.907L5.878 23.865C5.83839 23.6556 5.74954 23.4586 5.61878 23.2903C5.48803 23.122 5.31912 22.9872 5.126 22.897L3.918 22.482C2.101 21.636 1.493 19.586 2.536 17.875L3.216 16.933C3.34975 16.7135 3.41773 16.4602 3.41188 16.2032C3.40603 15.9462 3.3266 15.6962 3.183 15.483L2.676 14.763C1.238 12.717 2.232 10.429 4.362 9.743L4.832 9.592C5.35 9.425 5.852 8.994 5.894 8.451L6 7.133C6.17 4.993 8.122 3.765 10.176 4.39L10.841 4.592C11.481 4.842 11.983 4.629 12.333 4.248L13.052 3.331L13.05 3.33Z" fill="url(#paint9_radial_18_2)"/>
</g>
<g filter="url(#filter1_d_18_2)">
<path d="M15.534 26.934C21.468 26.934 26.277 22.124 26.277 16.191C26.277 10.258 21.467 5.448 15.534 5.448C9.60102 5.448 4.79102 10.258 4.79102 16.191C4.79102 22.124 9.60102 26.934 15.534 26.934Z" fill="url(#paint10_radial_18_2)"/>
</g>
<defs>
<filter id="filter0_i_18_2" x="2.00009" y="1.93865" width="27.2689" height="28.3557" filterUnits="userSpaceOnUse" color-interpolation-filters="sRGB">
<feFlood flood-opacity="0" result="BackgroundImageFix"/>
<feBlend mode="normal" in="SourceGraphic" in2="BackgroundImageFix" result="shape"/>
<feColorMatrix in="SourceAlpha" type="matrix" values="0 0 0 0 0 0 0 0 0 0 0 0 0 0 0 0 0 0 127 0" result="hardAlpha"/>
<feOffset dx="0.2" dy="-0.2"/>
<feGaussianBlur stdDeviation="0.375"/>
<feComposite in2="hardAlpha" operator="arithmetic" k2="-1" k3="1"/>
<feColorMatrix type="matrix" values="0 0 0 0 0.839216 0 0 0 0 0.45098 0 0 0 0 0.211765 0 0 0 1 0"/>
<feBlend mode="normal" in2="shape" result="effect1_innerShadow_18_2"/>
</filter>
<filter id="filter1_d_18_2" x="4.19102" y="5.448" width="22.086" height="22.086" filterUnits="userSpaceOnUse" color-interpolation-filters="sRGB">
<feFlood flood-opacity="0" result="BackgroundImageFix"/>
<feColorMatrix in="SourceAlpha" type="matrix" values="0 0 0 0 0 0 0 0 0 0 0 0 0 0 0 0 0 0 127 0" result="hardAlpha"/>
<feOffset dx="-0.3" dy="0.3"/>
<feGaussianBlur stdDeviation="0.15"/>
<feComposite in2="hardAlpha" operator="out"/>
<feColorMatrix type="matrix" values="0 0 0 0 0.921569 0 0 0 0 0.47451 0 0 0 0 0.133333 0 0 0 1 0"/>
<feBlend mode="normal" in2="BackgroundImageFix" result="effect1_dropShadow_18_2"/>
<feBlend mode="normal" in="SourceGraphic" in2="effect1_dropShadow_18_2" result="shape"/>
</filter>
<linearGradient id="paint0_linear_18_2" x1="23.878" y1="6.867" x2="8.528" y2="26.451" gradientUnits="userSpaceOnUse">
<stop stop-color="#FC8B23"/>
<stop offset="1" stop-color="#E67639"/>
</linearGradient>
<radialGradient id="paint1_radial_18_2" cx="0" cy="0" r="1" gradientUnits="userSpaceOnUse" gradientTransform="translate(18.1181 3.43722) rotate(138.155) scale(3.77864 3.33393)">
<stop offset="0.3" stop-color="#FFA13A"/>
<stop offset="1" stop-color="#FFA13A" stop-opacity="0"/>
</radialGradient>
<radialGradient id="paint2_radial_18_2" cx="0" cy="0" r="1" gradientUnits="userSpaceOnUse" gradientTransform="translate(8.288 2.244) rotate(67.8105) scale(6.00715 5.30017)">
<stop offset="0.3" stop-color="#FF942A"/>
<stop offset="1" stop-color="#FF942A" stop-opacity="0"/>
</radialGradient>
<radialGradient id="paint3_radial_18_2" cx="0" cy="0" r="1" gradientUnits="userSpaceOnUse" gradientTransform="translate(24.42 7.85) rotate(-164.745) scale(2.39513 3.31637)">
<stop offset="0.3" stop-color="#FFA13D"/>
<stop offset="1" stop-color="#FFA13D" stop-opacity="0"/>
</radialGradient>
<radialGradient id="paint4_radial_18_2" cx="0" cy="0" r="1" gradientUnits="userSpaceOnUse" gradientTransform="translate(29.252 11.336) rotate(154.195) scale(4.24668 3.13649)">
<stop offset="0.3" stop-color="#FFA13D"/>
<stop offset="1" stop-color="#FFA13D" stop-opacity="0"/>
</radialGradient>
<radialGradient id="paint5_radial_18_2" cx="0" cy="0" r="1" gradientUnits="userSpaceOnUse" gradientTransform="translate(30.177 18.52) rotate(-173.379) scale(4.73709 2.66952)">
<stop offset="0.3" stop-color="#FFA13D"/>
<stop offset="1" stop-color="#FFA13D" stop-opacity="0"/>
</radialGradient>
<radialGradient id="paint6_radial_18_2" cx="0" cy="0" r="1" gradientUnits="userSpaceOnUse" gradientTransform="translate(25.9328 24.024) rotate(-43.964) scale(4.29693 4.13959)">
<stop stop-color="#E0762A"/>
<stop offset="1" stop-color="#E0762A" stop-opacity="0"/>
</radialGradient>
<radialGradient id="paint7_radial_18_2" cx="0" cy="0" r="1" gradientUnits="userSpaceOnUse" gradientTransform="translate(6.019 23.015) rotate(-127.747) scale(3.29424 3.1736)">
<stop stop-color="#E0762A"/>
<stop offset="1" stop-color="#E0762A" stop-opacity="0"/>
</radialGradient>
<radialGradient id="paint8_radial_18_2" cx="0" cy="0" r="1" gradientUnits="userSpaceOnUse" gradientTransform="translate(1.523 11.882) rotate(25.2776) scale(3.34528 4.04325)">
<stop stop-color="#F0851D"/>
<stop offset="1" stop-color="#F0851D" stop-opacity="0"/>
</radialGradient>
<radialGradient id="paint9_radial_18_2" cx="0" cy="0" r="1" gradientUnits="userSpaceOnUse" gradientTransform="translate(21.492 28.7943) rotate(-142.487) scale(3.90025 3.67954)">
<stop offset="0.337" stop-color="#E3745B"/>
<stop offset="1" stop-color="#E3745B" stop-opacity="0"/>
</radialGradient>
<radialGradient id="paint10_radial_18_2" cx="0" cy="0" r="1" gradientUnits="userSpaceOnUse" gradientTransform="translate(21.6318 9.96715) rotate(117.739) scale(19.1699 23.673)">
<stop offset="0.172" stop-color="#FFD13D"/>
<stop offset="1" stop-color="#D89A29"/>
</radialGradient>
</defs>
</svg>
