<svg width="32" height="32" viewBox="0 0 22 32" fill="none" xmlns="http://www.w3.org/2000/svg">
<g clip-path="url(#clip0_2_25)">
<path d="M5.33666 32C8.28066 32 10.67 29.6107 10.67 26.6667V21.3333H5.33666C2.39266 21.3333 0.00332642 23.7227 0.00332642 26.6667C0.00332642 29.6107 2.39266 32 5.33666 32Z" fill="#0ACF83"/>
<path d="M0.00332642 16C0.00332642 13.056 2.39266 10.6667 5.33666 10.6667H10.67V21.3333H5.33666C2.39266 21.3333 0.00332642 18.944 0.00332642 16Z" fill="#A259FF"/>
<path d="M0.00332642 5.33333C0.00332642 2.38933 2.39266 0 5.33666 0H10.67V10.6667H5.33666C2.39266 10.6667 0.00332642 8.27733 0.00332642 5.33333Z" fill="#F24E1E"/>
<path d="M10.67 0H16.0033C18.9473 0 21.3367 2.38933 21.3367 5.33333C21.3367 8.27733 18.9473 10.6667 16.0033 10.6667H10.67V0Z" fill="#FF7262"/>
<path d="M21.3367 16C21.3367 18.944 18.9473 21.3333 16.0033 21.3333C13.0593 21.3333 10.67 18.944 10.67 16C10.67 13.056 13.0593 10.6667 16.0033 10.6667C18.9473 10.6667 21.3367 13.056 21.3367 16Z" fill="#1ABCFE"/>
</g>
<defs>
<clipPath id="clip0_2_25">
<rect width="21.34" height="32" fill="white"/>
</clipPath>
</defs>
</svg>
