<svg width="28" height="28" viewBox="0 0 28 28" fill="none" xmlns="http://www.w3.org/2000/svg">
<path d="M3 6.25C3 5.38805 3.34241 4.5614 3.9519 3.9519C4.5614 3.34241 5.38805 3 6.25 3H21.75C22.612 3 23.4386 3.34241 24.0481 3.9519C24.6576 4.5614 25 5.38805 25 6.25V21.75C25 22.612 24.6576 23.4386 24.0481 24.0481C23.4386 24.6576 22.612 25 21.75 25H6.25C5.38805 25 4.5614 24.6576 3.9519 24.0481C3.34241 23.4386 3 22.612 3 21.75V6.25ZM6.25 5C5.56 5 5 5.56 5 6.25V21.75C5 22.44 5.56 23 6.25 23H21.75C22.44 23 23 22.44 23 21.75V6.25C23 5.56 22.44 5 21.75 5H6.25Z" fill="black"/>
</svg>
