<svg width="32" height="32" viewBox="0 0 32 32" fill="none" xmlns="http://www.w3.org/2000/svg">
<g clip-path="url(#clip0_11_56)">
<path d="M24.5 0H7.5C3.35786 0 0 3.35786 0 7.5V24.5C0 28.6421 3.35786 32 7.5 32H24.5C28.6421 32 32 28.6421 32 24.5V7.5C32 3.35786 28.6421 0 24.5 0Z" fill="#2396ED"/>
<path d="M17.6484 15.2654H20.238V12.9224H17.6484V15.2654ZM14.5656 15.2654H17.1551V12.9224H14.5656V15.2654ZM11.5444 15.2654H14.134V12.9224H11.5444V15.2654ZM8.52312 15.2654H11.0512V12.9224H8.52325L8.52312 15.2654ZM5.44037 15.2654H8.03V12.9224H5.44037V15.2654ZM8.52325 12.4291H11.0511V10.0863H8.52325V12.4291ZM11.5445 12.4291H14.134V10.0863H11.5444L11.5445 12.4291ZM14.5656 12.4291H17.1551V10.0863H14.5656V12.4291ZM14.5656 9.59287H17.1551V7.25H14.5656V9.593V9.59287ZM28.5 14.2174C28.5 14.2174 27.3901 13.1691 25.1089 13.5391C24.8622 11.751 22.9509 10.7029 22.9509 10.7029C22.9509 10.7029 21.1629 12.8609 22.4576 15.2655C22.0877 15.4505 21.4711 15.6971 20.5462 15.6971H3.59075C3.28237 16.8686 3.28237 24.6373 11.791 24.6373C17.895 24.6373 22.4576 21.8011 24.6156 16.6219C27.8217 16.8685 28.5 14.2174 28.5 14.2174Z" fill="white"/>
</g>
<defs>
<clipPath id="clip0_11_56">
<rect width="32" height="32" fill="white"/>
</clipPath>
</defs>
</svg>
