<svg width="32" height="32" viewBox="0 0 32 32" fill="none" xmlns="http://www.w3.org/2000/svg">
<g clip-path="url(#clip0_2_41)">
<path d="M24.5 0H7.5C3.35786 0 0 3.35786 0 7.5V24.5C0 28.6421 3.35786 32 7.5 32H24.5C28.6421 32 32 28.6421 32 24.5V7.5C32 3.35786 28.6421 0 24.5 0Z" fill="#023430"/>
<path d="M21.3966 13.4489C20.0795 7.63875 17.3345 6.092 16.6343 4.99862C16.3455 4.51696 16.0897 4.01627 15.8686 3.5C15.8316 4.01625 15.7636 4.34125 15.3249 4.73275C14.444 5.51812 10.7028 8.56687 10.3879 15.1685C10.0945 21.3238 14.9129 25.1191 15.5494 25.5115C16.0389 25.7524 16.635 25.5166 16.9259 25.2955C19.2485 23.7015 22.422 19.4518 21.3991 13.4489" fill="#10AA50"/>
<path d="M16.0681 22.2339C15.9469 23.7574 15.86 24.6426 15.552 25.5132C15.552 25.5132 15.7541 26.9636 15.8961 28.5H16.3985C16.5183 27.4181 16.7013 26.3441 16.9465 25.2835C16.2961 24.9635 16.0931 23.5707 16.0681 22.2339Z" fill="#B8C4C2"/>
<path d="M16.9456 25.2844C16.2884 24.9808 16.0983 23.5586 16.069 22.2339C16.2315 20.0485 16.2789 17.8561 16.211 15.6658C16.1765 14.5165 16.2273 5.021 15.9279 3.63075C16.1327 4.10161 16.3687 4.55829 16.6343 4.99775C17.3345 6.092 20.0804 7.63875 21.3966 13.4489C22.422 19.4415 19.2658 23.68 16.9456 25.2844Z" fill="#12924F"/>
</g>
<defs>
<clipPath id="clip0_2_41">
<rect width="32" height="32" fill="white"/>
</clipPath>
</defs>
</svg>
