<svg width="32" height="32" viewBox="0 0 32 32" fill="none" xmlns="http://www.w3.org/2000/svg">
<path d="M16 2.996C12.8339 2.99593 9.7711 4.12251 7.35968 6.17414C4.94826 8.22577 3.3456 11.0686 2.8385 14.1938C2.3314 17.319 2.95294 20.5227 4.59192 23.2315C6.23089 25.9404 8.78033 27.9776 11.784 28.9787C12.4507 29.096 12.7 28.696 12.7 28.3453C12.7 28.0293 12.684 26.9787 12.684 25.8627C9.33333 26.4787 8.46666 25.0453 8.2 24.296C7.90419 23.5663 7.43511 22.9197 6.83333 22.412C6.36666 22.1627 5.7 21.5453 6.816 21.5293C7.2425 21.5755 7.65159 21.7238 8.00858 21.9617C8.36556 22.1996 8.65991 22.5201 8.86666 22.896C9.04897 23.2236 9.29413 23.5119 9.58808 23.7446C9.88204 23.9773 10.219 24.1496 10.5797 24.2518C10.9404 24.354 11.3177 24.384 11.69 24.3401C12.0623 24.2962 12.4223 24.1793 12.7493 23.996C12.8071 23.3178 13.1094 22.6838 13.6 22.212C10.6333 21.8787 7.53333 20.7293 7.53333 15.6293C7.51444 14.304 8.00343 13.0216 8.9 12.0453C8.49241 10.8936 8.5401 9.62972 9.03333 8.512C9.03333 8.512 10.1493 8.16267 12.7 9.87867C14.8817 9.2786 17.1849 9.2786 19.3667 9.87867C21.916 8.14534 23.0333 8.512 23.0333 8.512C23.5267 9.62969 23.5744 10.8936 23.1667 12.0453C24.0659 13.0199 24.5554 14.3034 24.5333 15.6293C24.5333 20.7453 21.416 21.8787 18.4493 22.212C18.7675 22.5345 19.0126 22.9217 19.1679 23.3473C19.3232 23.773 19.3851 24.227 19.3493 24.6787C19.3493 26.4627 19.3333 27.896 19.3333 28.3453C19.3333 28.696 19.5827 29.112 20.2493 28.9787C23.2475 27.9692 25.7893 25.9272 27.4211 23.217C29.0529 20.5068 29.6684 17.3049 29.1578 14.1829C28.6473 11.0609 27.0438 8.22191 24.6336 6.17278C22.2234 4.12364 19.1635 2.99772 16 2.996Z" fill="#111111"/>
</svg>
