<svg width="32" height="32" viewBox="0 0 32 32" fill="none" xmlns="http://www.w3.org/2000/svg">
<path fill-rule="evenodd" clip-rule="evenodd" d="M16 2C18.7689 2 21.4757 2.82109 23.778 4.35943C26.0803 5.89777 27.8747 8.08427 28.9343 10.6424C29.9939 13.2006 30.2712 16.0155 29.731 18.7313C29.1908 21.447 27.8574 23.9416 25.8995 25.8995C23.9416 27.8574 21.447 29.1908 18.7313 29.731C16.0155 30.2712 13.2006 29.9939 10.6424 28.9343C8.08427 27.8747 5.89777 26.0803 4.35943 23.778C2.82109 21.4757 2 18.7689 2 16C2 12.287 3.475 8.72601 6.1005 6.1005C8.72601 3.475 12.287 2 16 2Z" fill="#CC6699"/>
<path d="M24.782 7.992C24.148 5.506 20.025 4.692 16.123 6.074C13.6793 6.89515 11.4216 8.19019 9.47901 9.885C7.33001 11.895 6.98701 13.645 7.12801 14.376C7.62801 16.956 11.161 18.642 12.614 19.893V19.9C12.186 20.111 9.05001 21.7 8.31401 23.32C7.54001 25.032 8.43701 26.26 9.03201 26.425C9.92533 26.6401 10.8636 26.5701 11.7151 26.2248C12.5666 25.8796 13.2887 25.2764 13.78 24.5C14.1861 23.8709 14.4401 23.156 14.522 22.4117C14.604 21.6674 14.5115 20.9143 14.252 20.212C14.9519 20.0342 15.6794 19.9924 16.395 20.089C18.851 20.376 19.333 21.909 19.241 22.551C19.1977 22.7795 19.1058 22.9961 18.9713 23.1859C18.8369 23.3757 18.6632 23.5343 18.462 23.651C18.29 23.758 18.237 23.794 18.252 23.874C18.273 23.989 18.352 23.985 18.499 23.96C18.8681 23.8438 19.1933 23.6184 19.4318 23.3137C19.6703 23.009 19.8109 22.6392 19.835 22.253C19.894 20.753 18.453 19.067 15.901 19.11C15.1598 19.0888 14.4202 19.1902 13.712 19.41C13.6766 19.3695 13.6406 19.3295 13.604 19.29C12.026 17.607 9.11001 16.416 9.23301 14.153C9.27801 13.33 9.56401 11.164 14.833 8.536C19.153 6.383 22.611 6.976 23.209 8.289C24.063 10.165 21.361 13.65 16.875 14.153C16.3792 14.2537 15.8671 14.2414 15.3766 14.1171C14.8862 13.9928 14.43 13.7597 14.042 13.435C13.806 13.175 13.771 13.164 13.683 13.212C13.54 13.291 13.631 13.521 13.683 13.657C13.8548 13.9666 14.0866 14.2387 14.365 14.4575C14.6434 14.6763 14.9626 14.8373 15.304 14.931C17.0678 15.3142 18.9075 15.1323 20.562 14.411C23.283 13.362 25.405 10.437 24.782 7.992ZM13.218 20.663C13.4166 21.3477 13.4065 22.0761 13.189 22.755C13.1657 22.8257 13.14 22.8957 13.112 22.965C13.084 23.0343 13.0537 23.101 13.021 23.165C12.8527 23.5093 12.6347 23.8271 12.374 24.108C11.561 24.995 10.424 25.331 9.93701 25.048C9.41101 24.743 9.67401 23.492 10.617 22.495C11.3416 21.7785 12.177 21.1835 13.091 20.733L13.218 20.663Z" fill="white"/>
</svg>
