<svg xmlns="http://www.w3.org/2000/svg" width="205" height="82" viewBox="0 0 205 82" version="1.1"><path d="M 195.694 18.639 C 194.895 19.438, 195.798 21, 197.059 21 C 197.577 21, 198 20.325, 198 19.500 C 198 17.954, 196.820 17.513, 195.694 18.639 M 32.459 23.067 C 32.096 23.653, 32.050 24.384, 32.357 24.690 C 33.179 25.513, 36 24.229, 36 23.031 C 36 21.674, 33.303 21.701, 32.459 23.067 M 157.639 23.694 C 156.513 24.820, 156.954 26, 158.500 26 C 159.325 26, 160 25.577, 160 25.059 C 160 23.798, 158.438 22.895, 157.639 23.694 M 186 37 C 186 37.550, 186.450 38, 187 38 C 187.550 38, 188 37.550, 188 37 C 188 36.450, 187.550 36, 187 36 C 186.450 36, 186 36.450, 186 37 M 158 48 C 158 48.550, 158.450 49, 159 49 C 159.550 49, 160 48.550, 160 48 C 160 47.450, 159.550 47, 159 47 C 158.450 47, 158 47.450, 158 48 M 174 52 C 174 52.550, 174.450 53, 175 53 C 175.550 53, 176 52.550, 176 52 C 176 51.450, 175.550 51, 175 51 C 174.450 51, 174 51.450, 174 52 M 147.500 63 C 147.160 63.550, 147.584 64, 148.441 64 C 149.298 64, 150 63.550, 150 63 C 150 62.450, 149.577 62, 149.059 62 C 148.541 62, 147.840 62.450, 147.500 63 M 170.543 69.931 C 169.860 71.036, 171.437 72.230, 172.361 71.306 C 173.311 70.355, 173.134 69, 172.059 69 C 171.541 69, 170.859 69.419, 170.543 69.931 M 7.694 76.639 C 6.895 77.438, 7.798 79, 9.059 79 C 9.577 79, 10 78.325, 10 77.500 C 10 75.954, 8.820 75.513, 7.694 76.639" stroke="none" fill="#ac2444" fill-rule="evenodd"/><path d="M -0 41.005 L -0 82.009 102.750 81.755 L 205.500 81.500 205.761 40.750 L 206.022 0 103.011 0 L 0 0 -0 41.005 M 0.457 41.500 C 0.456 64.050, 0.588 73.418, 0.749 62.317 C 0.909 51.216, 0.910 32.766, 0.749 21.317 C 0.589 9.868, 0.457 18.950, 0.457 41.500 M 195.694 18.639 C 194.895 19.438, 195.798 21, 197.059 21 C 197.577 21, 198 20.325, 198 19.500 C 198 17.954, 196.820 17.513, 195.694 18.639 M 32.459 23.067 C 32.096 23.653, 32.050 24.384, 32.357 24.690 C 33.179 25.513, 36 24.229, 36 23.031 C 36 21.674, 33.303 21.701, 32.459 23.067 M 157.639 23.694 C 156.513 24.820, 156.954 26, 158.500 26 C 159.325 26, 160 25.577, 160 25.059 C 160 23.798, 158.438 22.895, 157.639 23.694 M 186 37 C 186 37.550, 186.450 38, 187 38 C 187.550 38, 188 37.550, 188 37 C 188 36.450, 187.550 36, 187 36 C 186.450 36, 186 36.450, 186 37 M 158 48 C 158 48.550, 158.450 49, 159 49 C 159.550 49, 160 48.550, 160 48 C 160 47.450, 159.550 47, 159 47 C 158.450 47, 158 47.450, 158 48 M 174 52 C 174 52.550, 174.450 53, 175 53 C 175.550 53, 176 52.550, 176 52 C 176 51.450, 175.550 51, 175 51 C 174.450 51, 174 51.450, 174 52 M 147.500 63 C 147.160 63.550, 147.584 64, 148.441 64 C 149.298 64, 150 63.550, 150 63 C 150 62.450, 149.577 62, 149.059 62 C 148.541 62, 147.840 62.450, 147.500 63 M 170.543 69.931 C 169.860 71.036, 171.437 72.230, 172.361 71.306 C 173.311 70.355, 173.134 69, 172.059 69 C 171.541 69, 170.859 69.419, 170.543 69.931 M 7.694 76.639 C 6.895 77.438, 7.798 79, 9.059 79 C 9.577 79, 10 78.325, 10 77.500 C 10 75.954, 8.820 75.513, 7.694 76.639" stroke="none" fill="#35174a" fill-rule="evenodd"/></svg>