<svg xmlns="http://www.w3.org/2000/svg" width="205" height="55" viewBox="0 0 205 55" version="1.1"><path d="M 14 34.038 C 10.975 35.119, 6.700 37.260, 4.500 38.795 C 0.581 41.529, 0.494 41.722, 0.204 48.293 L -0.091 55 50.704 54.870 C 84.803 54.783, 99.035 54.458, 94 53.882 C 83.065 52.630, 74.312 49.743, 58 42.009 C 36.359 31.749, 25.771 29.831, 14 34.038 M 174 41.174 C 156.876 48.910, 150.052 50.983, 136.791 52.476 C 129.481 53.299, 120.800 54.119, 117.500 54.297 C 114.200 54.476, 132.537 54.707, 158.250 54.811 L 205 55 205 52.159 C 205 49.492, 204.505 49.154, 196.962 46.669 C 192.541 45.212, 187.262 42.891, 185.230 41.510 C 180.855 38.537, 179.900 38.509, 174 41.174" stroke="none" fill="#e2640b" fill-rule="evenodd"/><path d="M 0 20.979 L 0 41.959 4.250 38.979 C 10.118 34.866, 18.876 32, 25.581 32 C 34.113 32, 42.058 34.452, 58 42.002 C 65.975 45.780, 75.498 49.773, 79.161 50.875 C 89.923 54.114, 103.558 55.181, 119.500 54.031 C 144.029 52.262, 149.464 51.270, 161.450 46.376 C 182.611 37.737, 180.260 38.244, 184.898 41.314 C 189.369 44.273, 203.846 49.487, 204.838 48.495 C 205.182 48.151, 205.636 37.099, 205.846 23.935 L 206.229 0 103.115 0 L 0 0 0 20.979 M 0.423 21.500 C 0.424 33.050, 0.570 37.638, 0.747 31.696 C 0.924 25.753, 0.923 16.303, 0.745 10.696 C 0.567 5.088, 0.422 9.950, 0.423 21.500" stroke="none" fill="#fbe696" fill-rule="evenodd"/></svg>